<?xml version="1.0" encoding="utf-8" ?><svg xmlns="http://www.w3.org/2000/svg" xmlns:xlink="http://www.w3.org/1999/xlink" width="1024" height="1024" viewBox="0 0 1024 1024"><path fill="#972425" d="M496.386 242.864C645.031 234.298 772.433 347.95 780.824 496.606C789.215 645.261 675.413 772.529 526.748 780.745C378.33 788.948 251.32 675.376 242.942 526.968C234.565 378.56 347.987 251.416 496.386 242.864Z"/><path d="M444.864 291.107C468.215 297.67 486.155 322.459 496.592 343.021L528.979 342.999C537.308 321.51 557.984 298.825 580.03 290.96C585.902 308.938 587.815 322.048 589.527 340.528C597.605 329.337 604.188 330.652 615.995 326.75C620.444 325.28 624.509 322.861 628.563 320.497C632.474 334.342 630.193 345.45 619.747 355.535C628.762 359.759 634.424 364.948 640.073 373.177C626.712 385.325 610.506 387.417 595.209 377.535C599.058 392.587 599.687 401.762 597.129 417.23C600.27 417.435 606.284 417.378 608.43 419.309C606.321 421.283 599.081 421.633 595.849 421.973C594.686 425.55 593.52 428.532 592.112 432.028C597.861 433.77 603.171 435.388 608.691 437.796C602.326 437.857 595.966 437.396 589.676 436.418C587.953 439.051 586.215 441.673 584.461 444.286C590.685 447.281 598.298 451.895 603.581 456.27C597.192 454.804 587.812 450.784 581.212 449.061C580.86 449.201 580.508 449.341 580.155 449.482C577.2 452.225 574.134 454.949 571.141 457.662C571.685 468.16 573.201 477.816 576.433 487.874C578.569 494.52 581.315 500.92 583.372 507.647C576.13 495.293 571.038 483.614 562.755 471.677C535.83 495.312 500.394 498.042 470.825 477.999C467.964 476.06 465.219 473.999 462.458 471.926C454.915 483.183 449.645 494.631 442.592 506.231C448.62 486.58 453.088 480.686 454.176 457.871C450.955 455.018 447.807 452.085 444.733 449.074C436.963 451.368 429.301 454.651 421.355 456.257C427.854 451.5 433.452 448.326 440.442 444.509C438.605 441.317 437.569 439.67 435.363 436.736C429.642 437.378 422.229 438.017 416.541 437.929C421.32 435.482 427.951 433.631 433.172 431.978C431.965 428.715 430.643 425.405 429.387 422.153C426.275 421.773 419.082 421.329 417.138 419.329C418.833 417.599 425.632 417.578 428.387 417.403C425.309 402.115 426.032 391.22 430.954 376.462C425.363 364.089 428.277 355.351 435.879 345.162C435.97 330.247 439.025 304.918 444.864 291.107Z"/><path fill="#972425" d="M473.198 371.25L587.77 371.455L585.828 379.561L554.813 379.569L439.35 379.688C438.839 376.804 438.597 374.335 438.306 371.426C449.645 371.131 461.797 371.29 473.198 371.25Z"/><path fill="#972425" d="M506.152 427.648C521.732 426.541 535.401 428.864 515.539 442.873L515.942 443.754C517.392 446.991 519.176 449.662 522.444 451.154C533.232 456.078 537.844 449.122 541.849 441.3L542.498 441.417C548.219 452.721 534.524 462.828 524.102 459.442C520.5 458.272 519.723 458.159 516.533 456.167L512.838 453.031C497.236 467.998 474.976 455.666 483.171 441.339L483.909 441.418C484.34 442.129 484.934 443.097 485.171 443.863C487.661 451.893 496.009 455.155 503.343 451.054C506.831 449.104 508.096 447.251 509.746 443.711L510.05 443.044C504.46 438.61 493.418 431.286 506.152 427.648Z"/><path fill="#972425" d="M451.842 305.268C465.457 315.372 472.513 328.038 479.164 343.304L474.125 343.332C464.737 343.366 455.348 343.335 445.96 343.239C446.562 328.527 447.619 319.573 451.842 305.268Z"/><path fill="#972425" d="M572.914 305.509C576.873 309.955 579.003 336.449 579.311 343.208L554.625 343.189L546.262 343.09C553.649 327.049 558.774 316.827 572.914 305.509Z"/><path fill="#972425" d="M462.725 390.704C481.391 389.012 490.527 398.284 495.094 415.421C492.294 413.938 489.916 412.212 486.867 412.715C476.82 415.404 467.007 414.028 461.252 404.601C457.549 398.535 456.482 396.428 450.846 391.808C454.581 391.248 458.911 391.005 462.725 390.704Z"/><path fill="#972425" d="M555.163 390.644C560.593 390.181 568.616 391.185 574.225 391.721C573.288 392.554 570.019 395.332 569.446 396.171C562.745 405.981 561.07 412.714 547.339 414.23C543.113 413.93 540.648 413.234 536.57 412.188L529.91 415.946C533.906 401.47 538.882 393.166 555.163 390.644Z"/><path fill="#972425" d="M577.915 358.707C580.264 358.422 584.668 358.364 587.178 358.253C587.582 360.274 588.209 362.215 587.675 364.16C584.872 364.934 570.698 363.747 567.125 363.526C564.444 363.465 556.998 363.341 554.819 362.226L554.973 361.463C558.609 359.669 572.974 359.071 577.915 358.707Z"/><path fill="#972425" d="M438.681 417.522C444.273 417.611 461.012 418.463 465.664 419.761C466.726 421.33 466.296 421.485 466.201 423.878C461.624 423.927 444.616 423.049 440.373 422.275C439.078 420.92 439.049 419.422 438.681 417.522Z"/><path fill="#972425" d="M581.417 417.707C582.941 417.511 585.602 417.49 587.223 417.425C586.755 419.278 586.551 419.949 585.822 421.708C583.903 423.421 569.811 423.443 566.125 423.585C564.252 423.711 560.864 424.202 559.424 423.104C559.145 421.452 559.009 422.193 559.72 420.785C563.332 418.129 576.29 418.044 581.417 417.707Z"/><path fill="#972425" d="M458.98 427.699C461.312 427.428 464.038 426.816 466.017 427.901C466.7 429.086 466.452 430.026 466.351 431.422C464.057 433.109 454.697 433.696 451.383 434.063C445.526 435.021 445.575 435.201 442.815 430.002C448.383 429.031 453.381 428.378 458.98 427.699Z"/><path fill="#972425" d="M559.367 427.429C563.64 427.376 578.17 428.506 581.694 430.111C581.842 431.443 580.89 432.536 580.134 433.768L579.929 434.061C578.013 434.883 562.17 432.839 559.64 432.163C558.816 430.798 559.226 429.131 559.367 427.429Z"/><path fill="#972425" d="M558.965 435.123C564.735 437.022 569.361 438.646 574.987 440.936L571.887 444.545C569.712 444.997 560.097 440.668 557.935 439.258C557.815 437.533 558.324 436.859 558.965 435.123Z"/><path fill="#972425" d="M465.89 435.546C466.981 435.872 466.773 436.041 467.788 437.131L467.657 438.737C465.42 441.343 457.665 443.754 454.103 445.054L450.308 440.993C455.466 439.075 460.661 437.259 465.89 435.546Z"/><path fill="#972425" d="M608.128 343.434L608.615 343.596C608.387 345.718 598.657 353.487 596.389 355.414L595.858 355.24L595.397 354.283C597.185 349.307 603.55 345.477 608.128 343.434Z"/><path d="M458.346 492.869C468.601 502.553 481.202 507.065 494.605 510.413C494.342 510.936 494.086 511.462 493.835 511.991C484.139 532.295 504.092 550.268 522.453 541.457C527.322 539.14 531.065 534.976 532.853 529.89C535.302 522.824 533.887 516.516 530.828 510.042C543.471 507.801 557.041 501.356 567.014 493.326C574.103 511.772 584.58 528.883 588.816 547.52C595.288 577.612 583.758 596.791 574.328 625.041C565.766 650.69 552.851 693.363 563.726 720.28C566.733 727.722 578.406 734.136 571.136 745.357C569.944 747.197 566.261 747.136 564.45 747.285C564.72 736.634 562.561 732.585 553.707 726.815C556.44 735.467 557.165 738.148 556.435 747.074L544.583 747.192C544.316 739.228 542.511 733.437 535.418 729.042C536.739 736.329 537.136 739.913 537.008 747.3C533.204 747.322 528.17 746.988 525.416 743.933C517.75 735.43 527.277 722.146 527.386 712.327C527.525 699.868 527.386 687.658 527.318 675.382L527.062 609.333L524.998 610.724C522.147 612.66 517.686 615.151 517.074 618.375C516.762 644.878 517.437 671.492 517.386 698.003C517.364 709.498 518.575 715.177 512.751 725.502C511.07 723.009 508.881 718.945 508.596 716.027C507.559 705.422 507.998 693.399 508.036 682.717L508.47 617.06L498.195 609.279C497.766 630.604 498.135 653.385 498.064 674.842L498.023 701.316C498.028 704.437 497.677 712.255 498.162 714.938C500.567 728.238 512.018 746.614 488.52 747.224C488.239 738.801 488.669 736.406 490.239 728.232L489.626 728.777C482.446 735.237 481.515 737.706 480.976 747.191C476.846 747.313 473.044 747.261 468.91 747.176C468.017 738.52 468.843 735.732 471.393 727.422C462.366 732.837 460.413 737.314 461.31 747.49C457.17 747.064 454.166 747.139 452.489 742.477C448.58 732.58 461.152 724.282 463.14 716.409C470.136 688.698 460.624 654.321 452.192 628.103C442.915 599.258 428.805 574.923 437.286 543.87C440.424 532.38 444.922 523.205 449.979 512.57C452.837 506.309 455.517 499.278 458.346 492.869Z"/><path d="M353.802 513.242C363.801 490.645 374.069 463.726 365.061 438.764C362.005 430.296 356.04 423.981 347.754 420.382C342.705 418.131 337.2 417.092 331.678 417.347C322.234 417.806 308.545 424.096 300.165 417.216C280.735 401.265 294.226 375.183 315.366 369.004C355.486 357.278 393.611 381.124 405.909 420.277C417.61 457.53 406.655 491.32 391.728 525.569C389.861 524.873 387.788 524.153 385.961 523.406C375.966 526.27 375.206 524.176 373.788 515.372C373.089 522.246 372.781 529.176 372.407 536.077C376.779 534.007 381.076 531.749 385.386 529.715C369.993 559.503 354.121 591.78 364.908 626.143C369.588 641.052 377.822 650.95 390.102 660.173C394.856 675.029 398.358 684.16 408.479 696.656C395.737 693.322 387.11 690.395 375.687 683.899C335.993 661.328 324.126 614.308 336.298 572.23C338.963 563.017 352.626 522.922 358.464 517.934L359.047 517.481C357.853 514.241 357.031 514.354 353.802 513.242Z"/><path fill="#972425" d="M359.047 517.481C361.376 518.111 361.455 517.531 363.658 516.25L364.615 516.407C366.55 519.635 368.023 518.845 371.737 518.888C367.464 522.369 364 524.497 359.348 527.405C359.026 524.627 358.453 520.628 358.464 517.934L359.047 517.481Z"/><path fill="#972425" d="M333.622 375.706C346.243 374.683 360.716 380.114 370.945 387.372C365.912 387.587 360.886 387.948 355.874 388.452C357.742 393.147 359.918 397.658 362.062 402.229C356.668 401.978 351.272 401.761 345.875 401.576C346.453 403.87 349.053 409.102 347.467 410.625L345.304 409.954C339.515 407.885 335.809 407.557 329.673 407.729C322.424 407.814 311.925 413.033 305.408 408.67C298.255 403.882 299.652 393.124 304.672 387.323C312.245 378.571 322.729 376.562 333.622 375.706Z"/><path d="M686.748 366.208C703.561 365.795 722.201 369.748 731.024 385.829C736.586 395.968 735.642 408.594 726.331 416.306C716.005 425.35 703.98 417.199 693.076 417.277C653.76 417.558 651.697 460.624 661.739 489.102C664.901 498.07 667.156 504.44 671.404 512.601C667.665 514.247 667.474 514.846 665.267 518.322L659.73 516.953L654.457 519.205C658.586 522.552 662.368 525.611 666.929 528.359L668.364 520.422C668.559 520.742 668.927 521.329 669.164 521.8C686.381 556.028 700.795 595.968 689.304 634.266C682.282 657.667 667.129 674.751 646.066 685.954C636.543 691.074 627.675 693.926 617.239 696.319C626.775 682.906 630.664 676.488 634.857 660.428C646.534 652.691 655.736 640.685 659.965 627.367C671.523 590.969 654.989 560.307 639.671 529.111C643.776 531.004 648.822 533.843 652.89 536.012C652.651 530.299 652.637 524.471 652.363 518.824L651.921 518.822C647.489 528.463 642.766 522.44 634.698 525.909C623.809 507.131 616.255 480.926 614.742 459.398C611.511 413.446 637.406 369.395 686.748 366.208Z"/><path fill="#972425" d="M686.92 375.704C700.972 374.759 722.266 380.476 724.812 397.11C725.295 400.268 724.794 403.506 722.732 406.071C716.195 414.202 706.945 408.844 698.583 408.032C692.891 407.437 691.781 407.468 686.08 408.115C682.747 408.803 679.506 410.007 676.278 411.103C677.26 408.341 678.235 404.651 679.078 401.772C674.336 401.648 668.304 402.01 663.475 402.167C665.688 397.739 667.773 393.098 669.859 388.599C665.474 387.874 659.241 387.547 654.684 387.176C664.741 379.791 674.598 376.797 686.92 375.704Z"/><path d="M424.887 553.953C425.405 554.993 424.989 560.657 424.979 562.448C424.943 569.34 425.021 576.766 426.476 583.521C429.26 596.438 434.565 608.335 438.869 620.789C448.123 647.565 456.756 676.321 455.436 704.966C454.847 717.748 445.114 722.034 442.59 733.69C442.215 735.422 442.251 739.328 442.247 741.236C436.88 741.358 430.817 741.19 425.399 741.155C425.458 733.505 426.764 730.312 430.099 723.466C429.336 723.82 428.589 724.209 427.86 724.63C422.099 727.89 419.507 731.045 417.777 737.36C417.586 740.259 417.876 740.343 415.314 741.672C406.639 741.783 407.834 727.06 412.771 721.946C420.45 713.991 428.352 712.636 438.637 711.782C415.076 692.736 402.899 677.956 397.879 646.527C392.77 614.535 405.414 579.581 424.887 553.953Z"/><path d="M600.535 554.385C603.244 556.886 608.089 565.614 610.166 568.976C633.881 607.362 637.104 658.832 605.917 694.197C600.184 700.699 594.206 705.847 587.477 711.341C597.632 712.965 609.61 715.028 614.866 725.306C617.028 729.534 618.1 739.465 611.479 741.39C610.032 741.811 609.446 741.495 608.226 740.812L607.894 739.363C606.565 730.833 602.58 727.194 595.111 723.564C598.444 730.761 599.515 733.12 600.137 741.09L583.317 741.12C582.747 724.667 578.203 726.326 571.645 713.078C569.477 708.698 569.238 700.495 569.462 695.527C570.611 670.078 577.929 645.147 586.523 621.326C591.113 608.603 596.399 596.624 599.001 583.289C601.002 573.03 600.728 564.66 600.535 554.385Z"/><path d="M502.737 521.738C511.22 521.691 519.703 521.704 528.185 521.778C527.221 527.952 524.486 535.167 517.245 537.601C516.597 537.819 516.32 537.2 515.832 536.681C514.759 530.97 518.137 532.878 518.818 528.179C516.843 524.957 511.71 520.996 508.031 524.672C503.055 529.644 513.043 532.529 509.179 537.457C504.731 537.55 495.083 528.556 497.927 522.661C499.862 521.326 499.881 521.8 502.737 521.738Z"/><path d="M510.315 506.55C518.902 506.21 523.082 508.928 526.993 516.404L516.625 516.42C510.578 516.43 504.531 516.394 498.484 516.312C501.7 510.337 504.132 508.584 510.315 506.55Z"/></svg>