<?xml version="1.0" encoding="utf-8" ?><svg xmlns="http://www.w3.org/2000/svg" xmlns:xlink="http://www.w3.org/1999/xlink" width="1024" height="1024" viewBox="0 0 1024 1024"><path fill="#9B2829" d="M242.465 510.466C243.109 361.882 363.896 241.853 512.482 242.144C661.067 242.436 781.383 362.938 781.444 511.523C781.505 660.609 660.51 781.417 511.425 781.125C362.34 780.832 241.819 659.55 242.465 510.466Z"/><path fill="#FEFEFE" d="M242.465 510.466C243.109 361.882 363.896 241.853 512.482 242.144C661.067 242.436 781.383 362.938 781.444 511.523L618.046 511.6C625.701 489.48 628.272 473.183 650.477 460.112C621.934 448.619 589.094 463.059 571.038 486.349C564.901 494.265 559.359 503.265 553.498 511.515L523.695 511.573C545.405 487.773 559.463 462.943 561.194 430.083C587.077 413.283 597.819 408.979 626.427 398.796C614.913 385.247 602.666 372.339 589.74 360.129C605.873 327.635 603.865 289.808 595.172 255.604C567.03 273.168 548.849 286.946 530.425 315.728C519.041 312.406 504.613 312.83 493.167 315.727C474.123 286.745 457.915 273.47 428.584 255.877C419.124 294.496 418.367 322.712 433.786 360.435C421.492 371.034 408.006 386.715 397.292 398.936C414.91 404.66 427.612 409.988 443.977 418.257C436.907 437.035 411.729 458.527 397.935 472.44C385.898 484.582 376.093 496.297 368.01 511.585C335.238 511.536 278.418 511.654 243.264 511.145C242.997 510.919 242.731 510.693 242.465 510.466Z"/><path fill="#FEFEFE" d="M453.176 424.118C465.263 430.993 477.221 440.936 487.679 450.08C493.205 454.913 499.912 462.436 506.057 466.166C510.362 466.46 514.276 466.51 518.545 465.901C523.123 462.344 528.266 457.114 532.608 453.117C538.087 448.143 543.715 443.334 549.484 438.698C538.747 497.769 492.877 522.951 451.224 558.583C433.292 573.923 416.033 594.596 405.759 615.873C394.988 640.107 391.805 664.735 398.306 690.567C387.347 676.736 378.355 661.455 371.585 645.158C347.64 586.259 359.083 527.759 403.702 482.521C421.013 464.969 443.515 447.173 453.176 424.118Z"/><path fill="#FEFEFE" d="M463.493 564.462C464.979 565.714 468.249 569.582 469.732 571.212C473.319 575.216 477.223 578.926 481.405 582.304C509.966 604.943 547.472 612.36 582.934 606.031C596.38 603.631 608.426 599.42 622.151 597.775C626.094 600.345 628.931 601.962 633.105 604.154C623.739 612.917 619.839 618.174 634.879 622.686L636.725 623.228C636.792 625.385 630.528 632.133 628.74 634.345C623.612 635.649 617.092 636.558 611.728 637.098C560.762 642.225 500.709 624.69 471.798 579.833C468.653 574.954 465.469 569.911 463.493 564.462Z"/><path fill="#FEFEFE" d="M454.442 570.87C455.163 571.69 459.925 580.64 460.934 582.412C464.227 588.071 468.022 593.423 472.275 598.401C500.409 630.94 542.179 645.142 583.992 648.079C586.464 651.467 588.296 653.994 591.101 657.077C580.489 661.784 573.595 665.483 586.1 674.672C587.431 675.421 587.501 675.373 588.506 676.486C587.96 678.787 581.183 682.011 578.588 684.225C546.084 678.492 508.768 660.53 485.876 636.721C471.739 622.018 461.31 604.736 456.751 584.873C455.741 580.469 454.35 575.404 454.442 570.87Z"/><path fill="#FEFEFE" d="M603.794 548.952C604.93 549.065 613.991 552.402 615.967 553.053C604.737 565.143 607.375 569.549 623.327 570.866C620.735 575.764 619.02 578.933 617.11 584.12C611.541 587.328 602.062 590.904 595.837 592.49C561.706 601.185 530.217 599.376 499.447 581.942C488.162 575.46 480.706 568.216 472.618 558.341C478.829 562.418 485.523 566.147 492.49 568.745C516.726 577.709 543.474 577.055 567.242 566.915C573.564 564.214 579.17 560.595 585.232 557.557C591.208 554.562 597.683 551.718 603.794 548.952Z"/><path fill="#FEFEFE" d="M583.636 495.607L584.073 495.633C586.836 499.084 579.526 517.889 601.581 504.651C602.34 509.602 602.829 512.858 604.176 517.716C599.28 529.705 586.114 544.194 575.188 550.858C554.06 563.745 529.86 567.356 505.97 561.965C500.469 560.691 482.546 554.196 479.569 549.783C482.375 545.843 485.837 548.551 489.768 548.99C519.181 552.208 546.475 539.538 563.905 515.802C567.586 510.789 573.15 500.831 577.019 496.883C579.202 496.521 581.458 496.037 583.636 495.607Z"/><path fill="#FEFEFE" d="M436.783 588.871C437.134 590.587 437.064 594.099 437.075 595.94C437.317 636.337 459.966 674.217 490.123 699.909C493.126 702.468 496.499 704.97 499.542 707.764C495.244 710.009 491.247 711.312 492.641 717.419C493.203 719.879 496.203 723.251 495.881 725.723L494.618 725.89C490.337 726.145 484.836 726.797 480.679 727.707C450.785 704.674 428.043 669.739 427.314 631.098C427.101 619.784 427.672 606.062 431.782 595.485C432.668 593.204 435.072 590.664 436.783 588.871Z"/><path fill="#FEFEFE" d="M438.713 371.419C456.775 372.669 479.361 379.928 490.933 394.576C501.457 407.897 505.326 429.204 503.471 445.705C497.234 443.01 495.978 441.634 490.787 437.144C470.5 419.677 443.085 402.162 417.58 393.804C424.479 386.206 431.524 378.743 438.713 371.419Z"/><path fill="#9B2829" d="M475.476 393.286C479.589 392.433 483.614 395.077 484.464 399.19C485.314 403.304 482.666 407.327 478.552 408.173C474.442 409.018 470.425 406.374 469.577 402.266C468.728 398.157 471.368 394.138 475.476 393.286Z"/><path fill="#FEFEFE" d="M584.19 371.714C586.205 371.923 603.749 390.968 606.492 393.915C581.082 401.464 554.065 419.885 533.811 436.476C530.713 439.274 524.724 446.141 520.327 443.903C519.273 441.008 520.129 435.144 520.371 432.039C523.503 391.822 545.462 376.431 584.19 371.714Z"/><path fill="#9B2829" d="M545.906 393.213C549.914 392.716 553.595 395.485 554.227 399.474C554.859 403.463 552.215 407.235 548.25 408.002C545.563 408.521 542.807 407.534 541.061 405.427C539.314 403.32 538.856 400.428 539.865 397.884C540.875 395.34 543.191 393.549 545.906 393.213Z"/><path fill="#FEFEFE" d="M447.636 593.883C448.996 595.232 453.493 608.259 454.885 611.089C474.054 650.056 508.134 671.596 547.047 686.383C548.028 688.831 549.344 691.632 550.424 694.077C543.229 694.618 531.917 694.613 537.13 705.421L541.9 712.394C537.349 713.377 534.623 714.099 530.216 715.582C487.615 693.628 446.085 643.413 447.636 593.883Z"/><path fill="#FEFEFE" d="M436.728 274.805C457.761 289.524 468.648 299.397 482.821 321.66C475.7 325.696 470.109 329.655 463.728 334.584C456.29 340.458 450.246 345.456 443.513 352.111C432.975 328.473 431.53 299.998 436.728 274.805Z"/><path fill="#FEFEFE" d="M586.631 274.921L587.231 275.215C588.279 278.744 588.616 284.118 589.032 287.963C591.415 309.973 589.201 331.641 580.377 352.091C574.855 346.551 567.047 340.328 560.965 335.393C554.694 330.418 548.133 325.821 541.316 321.625C553.798 300.614 567.588 289.08 586.631 274.921Z"/><path fill="#FEFEFE" d="M596.061 648.453C601.377 648.619 605.125 649.436 610.284 650.69C637.669 657.346 659.298 673.089 670.925 699.106C666.052 696.06 662.431 694.454 657.118 692.368C633.528 684.758 615.771 687.066 591.288 686.491C603.447 678.118 601.45 675.122 590.252 666.964C603.196 662.249 604.179 659.705 596.061 648.453Z"/><path fill="#FEFEFE" d="M558.171 689.766C576.843 694.911 597.635 716.83 604.841 734.508C608.266 742.91 609.479 751.549 610.36 760.473C606.088 755.046 603.937 752.548 598.7 748.094C580.567 734.043 562.334 730.048 541.2 722.19C555.192 717.316 554.521 714.548 546.1 703.148C556.871 702.937 562.645 701.799 558.171 689.766Z"/><path fill="#FEFEFE" d="M416.689 618.837C417.297 621.238 416.822 628.731 416.842 631.662C417.069 666.141 433.057 692.147 454.045 717.682C447.597 714.249 439.661 709.574 437.817 720.4C437.885 723.601 438.14 726.093 438.479 729.268C435.006 727.891 431.408 726.852 427.735 726.166C419.762 715.8 414.812 706.472 410.73 693.929C402.723 669.093 404.866 642.099 416.689 618.837Z"/><path fill="#FEFEFE" d="M636.333 596.073C640.818 595.937 645.308 596.066 649.778 596.46C673.452 598.735 691.783 609.083 706.791 627.357C699.87 624.787 696.75 624.11 689.401 623.039C670.577 622.399 660.125 625.735 642.571 631.708C651.194 620.535 649.349 616.9 635.823 614.111C644.472 606.996 646.436 602.942 636.333 596.073Z"/><path fill="#FEFEFE" d="M636.127 540.7C651.938 538.609 674.928 544.678 687.427 554.563C670.95 555.532 664.423 557.186 649.901 565.045C643.047 568.827 637.146 572.735 630.691 577.11C635.727 564.458 632.523 563.115 620.027 561.867C627.937 553.296 628.725 549.586 617.916 543.944C623.893 542.391 629.981 541.307 636.127 540.7Z"/><path fill="#FEFEFE" d="M502.088 717.33C506.12 718.011 508.973 718.279 513.069 717.49C516.326 719.362 520.91 721.759 523.374 724.571C536.906 740.015 541.447 757.054 541.532 777.082C539.385 773.732 537.373 771.015 534.982 767.823C523.458 754.131 506.34 745.27 491.158 735.883C505.21 732.442 510.891 733.848 502.088 717.33Z"/><path fill="#FEFEFE" d="M446.838 723.939C453.044 727.944 455.652 730.328 461.524 724.709C473.626 737.172 470.282 758.74 465.702 773.679L465.626 773.704C464.69 773.35 462.16 766.197 461.56 764.584C457.485 753.646 449.257 746.675 440.68 739.16C449.681 736.843 447.697 731.527 446.838 723.939Z"/><path fill="#FEFEFE" d="M624.854 467.218L625.975 467.211C625.585 468.686 623.322 471.629 622.322 473.065C616.273 481.757 613.23 491.825 610.101 501.825C609.941 501.391 609.776 500.96 609.605 500.53C606.081 491.727 600.713 495.002 594.708 498.701L593.832 499.183C591.592 496.097 598.191 488.275 586.59 485.262C598.344 474.605 609.079 468.986 624.854 467.218Z"/><path fill="#FEFEFE" d="M506.989 444.572C511.32 444.03 520.144 443.407 521.53 448.514C520.811 452.385 518.374 453.647 515.246 456.316C510.004 459.598 504.492 453.906 501.387 450.037C503.346 446.95 503.816 446.454 506.989 444.572Z"/></svg>