<?xml version="1.0" encoding="utf-8" ?><svg xmlns="http://www.w3.org/2000/svg" xmlns:xlink="http://www.w3.org/1999/xlink" width="1024" height="1024" viewBox="0 0 1024 1024"><path fill="#8F1C2C" d="M512.984 787.415C413.551 787.841 321.604 734.653 272.401 648.245C223.199 561.838 224.376 455.622 275.482 370.327C326.588 285.032 419.691 233.894 519.09 236.524C669.539 240.504 788.95 364.484 787.282 514.976C785.614 665.468 663.484 786.771 512.984 787.415Z"/><path fill="#FEFEFE" d="M519.09 236.524C669.539 240.504 788.95 364.484 787.282 514.976C785.614 665.468 663.484 786.771 512.984 787.415C506.441 785.756 496.021 785.069 488.014 783.26C452.639 775.268 421.935 753.446 402.755 722.665C383.384 691.493 377.246 653.882 385.703 618.169C397.262 567.03 437.136 527.059 488.247 515.377C500.368 512.645 509.027 512.662 521.027 511.322C540.091 509.193 562 501.146 578.331 491.009C609.076 471.835 630.976 441.263 639.238 405.983C647.62 369.985 641.411 332.133 621.967 300.699C604.707 273.504 578.559 253.126 547.97 243.032C537.985 239.847 529.153 238.799 519.09 236.524Z"/><path fill="#8F1C2C" d="M506.171 605.953C529.822 602.669 551.668 619.149 555.006 642.793C558.344 666.437 541.913 688.321 518.277 691.712C494.565 695.114 472.595 678.619 469.247 654.9C465.898 631.18 482.443 609.248 506.171 605.953Z"/><path fill="#FEFEFE" d="M505.891 332.297C529.665 328.858 551.695 345.428 554.986 369.223C558.276 393.018 541.571 414.944 517.756 418.088C494.149 421.204 472.455 404.675 469.193 381.088C465.931 357.501 482.324 335.705 505.891 332.297Z"/></svg>