<?xml version="1.0" encoding="utf-8" ?><svg xmlns="http://www.w3.org/2000/svg" xmlns:xlink="http://www.w3.org/1999/xlink" width="1024" height="1024" viewBox="0 0 1024 1024"><path fill="#8D1B2A" d="M507.99 236.148C607.978 234.744 700.875 287.637 750.698 374.339C800.521 461.042 799.444 567.936 747.885 653.617C696.326 739.299 602.384 790.31 502.444 786.893C352.982 781.782 234.899 658.354 236.405 508.813C237.91 359.272 358.456 238.247 507.99 236.148Z"/><path d="M507.99 236.148C607.978 234.744 700.875 287.637 750.698 374.339C800.521 461.042 799.444 567.936 747.885 653.617C696.326 739.299 602.384 790.31 502.444 786.893C493.217 785.055 486.033 783.63 477.053 780.65C442.052 769.387 413.064 744.499 396.635 711.605C380.162 678.489 377.462 640.2 389.124 605.1C405.08 557.53 445.743 522.474 495.143 513.699C504.326 512.022 512.475 511.887 521.574 510.953C536.449 509.425 552.723 504.225 566.203 497.542C598.601 481.677 623.396 453.625 635.163 419.524C647.187 384.543 644.803 346.215 628.536 312.993C610.637 277.489 578.282 251.441 539.775 241.536C534.3 240.216 528.751 239.23 523.157 238.583C518.673 238.037 512.108 237.688 507.99 236.148Z"/><path fill="#8D1B2A" d="M504.984 605.726C528.723 601.821 551.113 617.953 554.925 641.706C558.737 665.46 542.518 687.787 518.75 691.507C495.113 695.206 472.934 679.095 469.143 655.472C465.352 631.85 481.376 609.609 504.984 605.726Z"/><path d="M506.158 331.993C529.762 328.775 551.542 345.198 554.941 368.776C558.339 392.355 542.083 414.26 518.531 417.838C494.724 421.455 472.529 404.984 469.093 381.15C465.658 357.316 482.298 335.247 506.158 331.993Z"/></svg>